<svg xmlns="http://www.w3.org/2000/svg" width="354" height="254" viewBox="0 0 1062 762" fill="none">
<g transform="translate(0.000000,762.000000) scale(0.100000,-0.100000)"
fill="currentColor" stroke="none">
<path d="M627 7513 c-8 -68 -30 -105 -97 -165 -66 -60 -171 -117 -283 -152
-24 -8 -37 -47 -37 -114 0 -31 -6 -120 -14 -197 -8 -77 -22 -221 -31 -320 -8
-99 -20 -232 -26 -295 -10 -107 -9 -121 11 -190 11 -41 25 -93 30 -115 5 -22
14 -56 20 -75 5 -19 10 -53 10 -75 0 -40 -29 -72 -134 -148 -17 -13 -17 -16
-3 -63 62 -195 119 -711 184 -1672 18 -272 18 -269 -33 -847 -43 -497 -102
-910 -150 -1064 -18 -59 -20 -54 28 -87 135 -92 135 -85 43 -409 -15 -52 -15
-75 -6 -175 6 -63 18 -196 26 -295 9 -99 23 -243 31 -320 8 -77 14 -167 14
-200 0 -68 16 -108 45 -113 45 -9 144 -56 225 -108 93 -61 150 -145 150 -224
l0 -30 4697 2 4698 3 6 45 c11 71 24 96 86 155 59 57 238 155 282 155 31 0 37
24 55 225 9 99 23 254 32 345 8 91 22 236 31 323 14 140 14 162 1 200 -32 88
-78 270 -78 305 0 18 56 74 126 128 l28 21 -16 59 c-59 210 -108 574 -153
1129 -48 599 -46 567 -30 786 9 112 22 294 31 404 45 600 101 1058 150 1231
21 75 20 78 -56 140 -38 32 -73 66 -76 77 -8 25 33 199 73 316 14 40 14 60 -1
207 -9 90 -23 237 -31 326 -52 572 -49 558 -85 558 -24 0 -151 59 -203 94 -21
14 -42 26 -47 26 -13 0 -91 91 -102 120 -5 14 -13 45 -17 70 l-6 45 -4696 3
-4696 2 -6 -47z m411 -88 c-2 -5 -36 -27 -77 -48 -343 -177 -542 -426 -612
-764 -25 -124 -27 -129 -40 -116 -15 15 -12 185 6 328 8 66 15 147 15 180 0
63 18 105 46 105 29 0 165 75 219 120 55 47 125 130 125 150 0 6 10 21 23 33
20 21 31 22 159 22 87 0 137 -4 136 -10z m8437 -4 c11 -5 40 -16 65 -26 25
-10 73 -30 107 -46 35 -16 65 -29 68 -29 3 0 45 -26 93 -57 151 -98 309 -272
376 -414 93 -198 124 -466 71 -613 -45 -123 -29 -269 40 -374 23 -36 23 -39
10 -107 -60 -315 -91 -1091 -57 -1450 15 -155 15 -864 0 -1020 -34 -359 -2
-1180 56 -1436 13 -55 12 -59 -13 -100 -59 -98 -81 -255 -47 -332 8 -18 19
-47 25 -66 13 -41 15 -206 2 -264 -5 -23 -17 -78 -26 -122 -70 -326 -357 -622
-728 -750 l-74 -25 -4117 0 c-3827 0 -4121 1 -4168 17 -72 23 -258 118 -348
177 -90 59 -213 183 -274 275 -138 209 -204 543 -140 714 49 130 36 278 -34
387 -13 20 -20 44 -18 55 3 12 8 48 11 80 4 33 12 103 20 155 30 212 40 441
36 860 -4 515 -4 1281 0 1840 4 479 -10 725 -61 1025 -8 49 -7 54 29 115 49
82 62 262 25 331 -27 48 -27 287 -1 409 58 267 238 514 472 648 81 46 243 122
297 139 53 17 264 18 4169 16 2405 -2 4122 -6 4134 -12z m422 9 c7 0 24 -24
38 -53 51 -109 182 -209 360 -277 19 -7 22 -25 39 -191 23 -217 27 -412 9
-430 -14 -14 -14 -13 -38 126 -58 328 -307 638 -632 785 -36 16 -62 33 -59 38
2 4 65 7 138 5 73 -1 138 -3 145 -3z m-9597 -1108 c0 -23 39 -134 51 -146 26
-27 -6 -223 -35 -213 -6 2 -14 23 -18 48 -3 24 -14 69 -22 99 -20 68 -12 230
10 230 8 0 14 -8 14 -18z m10084 -9 c22 -81 14 -181 -23 -276 -6 -16 -11 -42
-11 -58 0 -45 -24 -35 -43 19 -21 59 -14 141 18 232 13 36 26 73 29 83 3 9 10
17 15 17 5 0 12 -8 15 -17z m-10147 -664 c2 -19 9 -101 18 -184 30 -307 35
-384 36 -553 2 -172 -4 -227 -15 -135 -4 26 -13 86 -21 133 -8 47 -15 100 -15
118 0 60 -51 395 -76 494 -21 85 -18 104 19 138 39 36 51 34 54 -11z m10241
15 c38 -29 38 -40 7 -179 -30 -136 -75 -437 -75 -508 0 -23 -5 -60 -11 -82
-11 -39 -12 -39 -21 -15 -13 33 -3 345 16 520 8 74 17 169 20 210 2 41 5 76 5
78 3 9 29 -2 59 -24z m-10187 -2951 c-1 -159 -11 -303 -37 -556 -8 -75 -14
-157 -14 -182 0 -59 -10 -61 -58 -17 -44 41 -44 37 -14 162 22 94 72 412 72
460 0 19 7 73 15 120 8 47 17 107 21 133 10 88 17 40 15 -120z m10119 -80 c14
-164 50 -398 82 -541 23 -103 20 -115 -44 -148 l-27 -14 -5 53 c-2 28 -12 124
-21 212 -19 184 -31 508 -21 551 12 48 26 7 36 -113z m-60 -992 c0 -9 11 -56
26 -105 27 -94 27 -205 -1 -243 -12 -16 -14 -14 -23 17 -6 19 -21 62 -32 95
-23 66 -24 184 -2 238 12 29 32 28 32 -2z m-10006 -15 c21 -44 21 -158 1 -194
-8 -15 -23 -53 -33 -85 -25 -75 -35 -76 -45 -2 -10 72 -3 149 18 198 8 20 15
52 15 70 0 57 20 63 44 13z m2 -587 c62 -357 282 -637 636 -809 37 -18 66 -36
63 -39 -7 -12 -286 -2 -301 10 -7 6 -16 21 -20 32 -12 38 -82 118 -142 162
-62 46 -187 115 -208 115 -26 0 -44 43 -44 105 0 33 -7 116 -15 183 -34 271
-8 467 31 241z m10009 53 c13 -98 -31 -560 -55 -572 -76 -38 -175 -87 -194
-98 -65 -34 -176 -157 -176 -196 0 -30 -29 -36 -169 -39 -77 -2 -141 0 -141 5
0 4 19 17 43 29 299 150 498 358 594 619 31 84 63 217 63 263 0 24 7 37 21 37
4 0 10 -22 14 -48z"/>
</g>
</svg>
